<svg width="202" height="211" viewBox="0 0 202 211" fill="none" xmlns="http://www.w3.org/2000/svg">
<path fill-rule="evenodd" clip-rule="evenodd" d="M8.95647 36.39C6.32842 35.5943 3.70211 34.7991 1.08987 34C1.03692 34.8469 0.899093 36.0238 0.738545 37.3946C-0.00208539 43.7186 -1.22613 54.1703 3.17011 55.3912C34.3739 63.1158 60.5257 77.0795 81.031 100.253C81.4768 99.5106 81.9226 98.8421 82.3683 98.1736C82.8141 97.5051 83.2599 96.8367 83.7057 96.0939C86.3803 91.3403 87.2718 87.1809 86.6775 83.3186C84.1783 59.1664 46.3913 47.7249 8.95647 36.39ZM193.044 36.3899L193.044 36.39C155.609 47.7249 117.822 59.1664 115.323 83.3186C114.728 87.1809 115.62 91.3403 118.294 96.0939C118.74 96.8365 119.186 97.5049 119.631 98.1732L119.632 98.1736C120.077 98.8421 120.523 99.5106 120.969 100.253C141.474 77.0795 167.626 63.1158 198.83 55.3912C203.226 54.1703 202.002 43.7186 201.261 37.3946L201.261 37.3943L201.261 37.3896C201.101 36.0209 200.963 34.8458 200.91 34C198.298 34.799 195.672 35.5941 193.044 36.3897L193.044 36.3898L193.044 36.3899ZM89.942 74.4043C97.097 86.2634 98.7643 100.746 93.9612 113.168H51.7583C52.9215 112.903 54.1576 112.658 55.4692 112.433C40.6103 97.8752 22.7796 87.7738 1.97703 81.5347C1.23683 102.81 12.7108 125.928 30.3 138.193V138.577H30.8591C41.408 145.742 54.1019 149.013 67.6536 145.708C73.315 144.328 78.6555 141.921 83.4368 138.577H118.563C123.344 141.921 128.685 144.328 134.346 145.708C147.898 149.013 160.592 145.742 171.141 138.577H171.701V138.192C189.29 125.927 200.763 102.809 200.023 81.5347C179.22 87.7738 161.39 97.8752 146.531 112.433C147.842 112.658 149.078 112.903 150.242 113.168H108.039C103.236 100.746 104.903 86.2634 112.058 74.4043C118.893 62.8174 128.7 58.3609 140.29 53.3102C134.346 53.6073 127.808 55.687 121.865 59.2522C111.755 65.1038 104.622 74.051 101 84.1751C97.3777 74.051 90.2451 65.1038 80.1351 59.2522C74.1915 55.687 67.6536 53.6073 61.71 53.3102C73.3 58.3609 83.1069 62.8174 89.942 74.4043ZM201.202 58.0692C171.187 65.7938 144.441 79.4604 123.044 102.337C128.393 108.279 134.634 110.062 142.063 111.25C157.814 94.9096 177.13 84.8082 198.824 78.5691C202.748 77.4155 202.011 68.7365 201.486 62.5506C201.335 60.7709 201.202 59.1976 201.202 58.0692ZM78.955 102.337C57.5581 79.4604 30.812 65.7938 0.796876 58.0692C0.796876 59.1976 0.663372 60.7709 0.512359 62.5506C-0.012552 68.7365 -0.749011 77.4155 3.17432 78.5691C24.8684 84.8082 44.185 94.9096 59.9355 111.25C67.365 110.062 73.6058 108.279 78.955 102.337Z" fill="url(#paint0_linear)"/>
<g filter="url(#filter0_d)">
<path d="M181 156.585V64.9487L100.937 19.0029L21.0002 64.9487V156.585L100.937 202.786L181 156.585Z" fill="url(#paint1_linear)"/>
<path d="M101 181.321L101 202.781L181 156.594L160.636 146.412L101 181.321Z" fill="url(#paint2_linear)"/>
<path d="M101 181.321L101 202.781L181 156.594L160.636 146.412L101 181.321Z" fill="url(#paint3_linear)"/>
<g filter="url(#filter1_i)">
<path d="M161.539 146.055V76.335L100.936 41.2314L40.4583 76.335V146.108L101 181.014L161.539 146.055Z" fill="url(#paint4_linear)"/>
</g>
<g style="mix-blend-mode:overlay" opacity="0.25">
<path d="M160.635 110.048L180.999 156.593L130.09 163.866L160.635 146.04V110.048Z" fill="#CAD3F3"/>
</g>
<path d="M101 19V41.0497L160.636 76.5931L181 64.9568L101 19Z" fill="url(#paint5_linear)"/>
<path d="M101 19V41.0497L160.636 76.5931L181 64.9568L101 19Z" fill="url(#paint6_linear)"/>
<path d="M21 65.0156L40.4594 75.9686V146.069L21 156.592V65.0156Z" fill="url(#paint7_linear)"/>
<path d="M21 65.0156L40.4594 75.9686V146.069L21 156.592V65.0156Z" fill="url(#paint8_linear)"/>
<path d="M21 65.0156L40.4594 75.9686V146.069L21 156.592V65.0156Z" fill="url(#paint9_linear)"/>
<g style="mix-blend-mode:overlay" opacity="0.25">
<path d="M41.3636 110.048L21 156.593L71.9089 163.866L41.3636 146.411V110.048Z" fill="#CAD3F3"/>
</g>
<g style="mix-blend-mode:overlay" opacity="0.25">
<path d="M70.7289 58.5303L101 19.8672L133.431 58.5303L100.695 41.275L70.7289 58.5303Z" fill="#CAD3F3"/>
</g>
<path fill-rule="evenodd" clip-rule="evenodd" d="M100.935 38.7705L163.278 74.8812V147.093L100.937 183.332L38.7192 147.214V74.8825L100.935 38.7705ZM100.938 43.7745L43.0431 77.3781V144.72L100.936 178.325L158.954 144.599V77.3794L100.938 43.7745Z" fill="url(#paint10_linear)"/>
</g>
<g filter="url(#filter2_d)">
<path d="M111.839 146.112C105.763 147.753 100.461 150.656 96.1296 155.514C97.2125 156.777 98.3628 157.155 99.8668 157.408C103.055 153.937 106.966 151.792 111.358 150.466C112.38 150.151 111.839 147.185 111.839 146.112Z" fill="url(#paint11_linear)"/>
<path d="M95.7774 146.363C91.2051 149.14 89.6409 155.197 92.288 159.993C93.6717 162.454 95.8375 164.095 98.3041 164.726C105.704 166.619 111.84 158.352 111.6 151.096C107.388 152.421 103.779 154.566 100.771 157.658C109.554 159.236 101.613 165.735 96.018 161.76C91.9872 158.92 91.5059 153.557 93.7921 149.581C95.1758 147.12 97.1611 146.174 99.5074 145.101C98.3041 145.164 96.9806 145.606 95.7774 146.363Z" fill="url(#paint12_linear)"/>
<path d="M111.779 141C103.718 143.587 94.9944 145.985 94.453 151.475C94.3327 152.295 94.5131 153.178 95.0546 154.188C95.2351 154.504 95.4156 154.756 95.596 155.072C99.7472 150.15 105.041 147.184 111.358 145.543C112.441 145.228 111.84 142.01 111.779 141Z" fill="url(#paint13_linear)"/>
</g>
<g filter="url(#filter3_d)">
<path d="M57.2654 90.4608C60.5204 89.1185 64.1469 88.4474 68.1449 88.4474C72.1783 88.4474 75.1149 89.2677 76.9547 90.9082C78.7944 92.5114 79.7143 95.1027 79.7143 98.682C79.7143 102.261 78.3522 105.002 75.6279 106.903C77.3262 107.873 78.5291 108.879 79.2367 109.923C79.9797 110.967 80.3512 112.626 80.3512 114.901C80.3512 118.89 79.3959 121.854 77.4854 123.793C75.6102 125.732 72.5852 126.701 68.4102 126.701C65.3321 126.701 62.0948 126.216 58.6983 125.247L57 124.8L57.3715 118.927C61.3341 119.636 64.6599 119.99 67.3488 119.99C70.993 119.99 72.8151 118.349 72.8151 115.068C72.8151 113.689 72.3375 112.589 71.3822 111.769C70.4623 110.949 69.2417 110.538 67.7203 110.538H60.6619V104.163H67.7203C68.8879 104.163 69.9139 103.641 70.7984 102.597C71.7183 101.553 72.1783 100.397 72.1783 99.1294C72.1783 96.4822 70.4269 95.1586 66.9243 95.1586C64.483 95.1586 61.8825 95.4196 59.1228 95.9416L57.743 96.1653L57.2654 90.4608Z" fill="url(#paint14_linear)"/>
<path d="M94.9229 113.279V126.03H87.5991V88H101.61C110.101 88 114.347 92.1758 114.347 100.528C114.347 105.486 112.578 109.14 109.04 111.489L114.188 126.03H106.174L101.981 113.279H94.9229ZM101.716 106.679C103.45 106.679 104.741 106.12 105.59 105.002C106.439 103.883 106.864 102.41 106.864 100.583C106.864 98.7565 106.404 97.3024 105.484 96.2212C104.599 95.1399 103.308 94.5993 101.61 94.5993H94.9229V106.679H101.716Z" fill="url(#paint15_linear)"/>
<path d="M132.663 126.03H120.509V88H132.663C135.776 88 138.341 88.3542 140.358 89.0626C142.374 89.7337 143.931 90.8709 145.028 92.4741C146.16 94.0401 146.939 95.9043 147.363 98.0668C147.788 100.192 148 102.97 148 106.4C148 109.83 147.805 112.682 147.416 114.957C147.027 117.194 146.284 119.207 145.187 120.997C144.126 122.749 142.569 124.035 140.517 124.856C138.465 125.639 135.847 126.03 132.663 126.03ZM140.358 110.93C140.429 109.737 140.464 108.096 140.464 106.008C140.464 103.883 140.393 102.187 140.252 100.919C140.11 99.6514 139.774 98.4955 139.243 97.4516C138.713 96.4076 137.917 95.6992 136.855 95.3264C135.829 94.9162 134.432 94.7112 132.663 94.7112H127.833V119.319H132.663C135.316 119.319 137.244 118.61 138.447 117.194C139.473 116.038 140.11 113.95 140.358 110.93Z" fill="url(#paint16_linear)"/>
</g>
<defs>
<filter id="filter0_d" x="13" y="11" width="176" height="199.786" filterUnits="userSpaceOnUse" color-interpolation-filters="sRGB">
<feFlood flood-opacity="0" result="BackgroundImageFix"/>
<feColorMatrix in="SourceAlpha" type="matrix" values="0 0 0 0 0 0 0 0 0 0 0 0 0 0 0 0 0 0 127 0"/>
<feOffset/>
<feGaussianBlur stdDeviation="4"/>
<feColorMatrix type="matrix" values="0 0 0 0 0 0 0 0 0 0 0 0 0 0 0 0 0 0 0.25 0"/>
<feBlend mode="normal" in2="BackgroundImageFix" result="effect1_dropShadow"/>
<feBlend mode="normal" in="SourceGraphic" in2="effect1_dropShadow" result="shape"/>
</filter>
<filter id="filter1_i" x="40.4583" y="41.2314" width="121.081" height="139.783" filterUnits="userSpaceOnUse" color-interpolation-filters="sRGB">
<feFlood flood-opacity="0" result="BackgroundImageFix"/>
<feBlend mode="normal" in="SourceGraphic" in2="BackgroundImageFix" result="shape"/>
<feColorMatrix in="SourceAlpha" type="matrix" values="0 0 0 0 0 0 0 0 0 0 0 0 0 0 0 0 0 0 127 0" result="hardAlpha"/>
<feOffset/>
<feGaussianBlur stdDeviation="4.5"/>
<feComposite in2="hardAlpha" operator="arithmetic" k2="-1" k3="1"/>
<feColorMatrix type="matrix" values="0 0 0 0 0.479167 0 0 0 0 0.220949 0 0 0 0 0.0918403 0 0 0 1 0"/>
<feBlend mode="normal" in2="shape" result="effect1_innerShadow"/>
</filter>
<filter id="filter2_d" x="88.85" y="141" width="25.3" height="28.3" filterUnits="userSpaceOnUse" color-interpolation-filters="sRGB">
<feFlood flood-opacity="0" result="BackgroundImageFix"/>
<feColorMatrix in="SourceAlpha" type="matrix" values="0 0 0 0 0 0 0 0 0 0 0 0 0 0 0 0 0 0 127 0"/>
<feOffset dy="2.15"/>
<feGaussianBlur stdDeviation="1.075"/>
<feColorMatrix type="matrix" values="0 0 0 0 0.929167 0 0 0 0 0.342459 0 0 0 0 0.0425868 0 0 0 0.75 0"/>
<feBlend mode="normal" in2="BackgroundImageFix" result="effect1_dropShadow"/>
<feBlend mode="normal" in="SourceGraphic" in2="effect1_dropShadow" result="shape"/>
</filter>
<filter id="filter3_d" x="54.85" y="87.85" width="95.3" height="43.0011" filterUnits="userSpaceOnUse" color-interpolation-filters="sRGB">
<feFlood flood-opacity="0" result="BackgroundImageFix"/>
<feColorMatrix in="SourceAlpha" type="matrix" values="0 0 0 0 0 0 0 0 0 0 0 0 0 0 0 0 0 0 127 0"/>
<feOffset dy="2"/>
<feGaussianBlur stdDeviation="1.075"/>
<feColorMatrix type="matrix" values="0 0 0 0 0.670833 0 0 0 0 0.258345 0 0 0 0 0.0475174 0 0 0 0.5 0"/>
<feBlend mode="normal" in2="BackgroundImageFix" result="effect1_dropShadow"/>
<feBlend mode="normal" in="SourceGraphic" in2="effect1_dropShadow" result="shape"/>
</filter>
<linearGradient id="paint0_linear" x1="100.985" y1="146.866" x2="100.985" y2="33.7404" gradientUnits="userSpaceOnUse">
<stop offset="0.366915" stop-color="#CA6838"/>
<stop offset="1" stop-color="#FFC4A6"/>
</linearGradient>
<linearGradient id="paint1_linear" x1="100.988" y1="202.568" x2="100.988" y2="18.5807" gradientUnits="userSpaceOnUse">
<stop offset="0.255869" stop-color="#CA6838"/>
<stop offset="1" stop-color="#FFC8AB"/>
</linearGradient>
<linearGradient id="paint2_linear" x1="140.988" y1="148.479" x2="140.988" y2="203.479" gradientUnits="userSpaceOnUse">
<stop stop-color="#838397"/>
<stop offset="1" stop-color="#404053"/>
</linearGradient>
<linearGradient id="paint3_linear" x1="140.994" y1="202.714" x2="140.994" y2="146.283" gradientUnits="userSpaceOnUse">
<stop offset="0.255869" stop-color="#AA5124"/>
<stop offset="1" stop-color="#FE8F56"/>
</linearGradient>
<linearGradient id="paint4_linear" x1="106.378" y1="180.463" x2="161.347" y2="68.6358" gradientUnits="userSpaceOnUse">
<stop stop-color="#DF875A"/>
<stop offset="1" stop-color="#AA5125"/>
</linearGradient>
<linearGradient id="paint5_linear" x1="140.988" y1="20.1686" x2="140.988" y2="90.1459" gradientUnits="userSpaceOnUse">
<stop offset="0.00116027" stop-color="#D3D3E1"/>
<stop offset="1" stop-color="#63637D"/>
</linearGradient>
<linearGradient id="paint6_linear" x1="140.994" y1="76.5247" x2="140.994" y2="18.8677" gradientUnits="userSpaceOnUse">
<stop stop-color="#D36E3C"/>
<stop offset="1" stop-color="#FF9F6F"/>
</linearGradient>
<linearGradient id="paint7_linear" x1="30.7267" y1="66.8737" x2="30.7267" y2="178.142" gradientUnits="userSpaceOnUse">
<stop offset="0.00116027" stop-color="#D3D3E1"/>
<stop offset="1" stop-color="#63637D"/>
</linearGradient>
<linearGradient id="paint8_linear" x1="30.7283" y1="156.483" x2="30.7283" y2="64.8052" gradientUnits="userSpaceOnUse">
<stop stop-color="#B96237"/>
<stop offset="1" stop-color="#FFA97C"/>
</linearGradient>
<linearGradient id="paint9_linear" x1="30.7283" y1="156.483" x2="30.7283" y2="64.8052" gradientUnits="userSpaceOnUse">
<stop stop-color="#B96237"/>
<stop offset="1" stop-color="#FFB58F"/>
</linearGradient>
<linearGradient id="paint10_linear" x1="100.99" y1="183.16" x2="100.99" y2="38.4384" gradientUnits="userSpaceOnUse">
<stop offset="0.00233989" stop-color="#FED1BA"/>
<stop offset="1" stop-color="#AB4714"/>
</linearGradient>
<linearGradient id="paint11_linear" x1="101.5" y1="165" x2="101.5" y2="141" gradientUnits="userSpaceOnUse">
<stop stop-color="#F49C6F"/>
<stop offset="1" stop-color="#FFD1BE"/>
</linearGradient>
<linearGradient id="paint12_linear" x1="101.5" y1="165" x2="101.5" y2="141" gradientUnits="userSpaceOnUse">
<stop stop-color="#F49C6F"/>
<stop offset="1" stop-color="#FFD1BE"/>
</linearGradient>
<linearGradient id="paint13_linear" x1="101.5" y1="165" x2="101.5" y2="141" gradientUnits="userSpaceOnUse">
<stop stop-color="#F49C6F"/>
<stop offset="1" stop-color="#FFD1BE"/>
</linearGradient>
<linearGradient id="paint14_linear" x1="102.5" y1="126.701" x2="102.5" y2="88" gradientUnits="userSpaceOnUse">
<stop stop-color="#F49C6F"/>
<stop offset="1" stop-color="#FFD1BE"/>
</linearGradient>
<linearGradient id="paint15_linear" x1="102.5" y1="126.701" x2="102.5" y2="88" gradientUnits="userSpaceOnUse">
<stop stop-color="#F49C6F"/>
<stop offset="1" stop-color="#FFD1BE"/>
</linearGradient>
<linearGradient id="paint16_linear" x1="102.5" y1="126.701" x2="102.5" y2="88" gradientUnits="userSpaceOnUse">
<stop stop-color="#F49C6F"/>
<stop offset="1" stop-color="#FFD1BE"/>
</linearGradient>
</defs>
</svg>
